<svg width="37" height="29" viewBox="0 0 37 29" fill="none" xmlns="http://www.w3.org/2000/svg">
<path d="M36.8943 14.0171L32.93 4.76926C32.8288 4.53047 32.6596 4.32672 32.4434 4.18342C32.2273 4.04011 31.9737 3.96358 31.7143 3.96337H27.75V1.32112C27.75 0.97074 27.6108 0.634707 27.363 0.386949C27.1151 0.13919 26.779 0 26.4286 0H1.32143C0.970964 0 0.634853 0.13919 0.387037 0.386949C0.139221 0.634707 0 0.97074 0 1.32112V23.7802C0 24.1306 0.139221 24.4667 0.387037 24.7144C0.634853 24.9622 0.970964 25.1014 1.32143 25.1014H4.14929C4.45359 26.2208 5.1179 27.2091 6.03972 27.9137C6.96154 28.6183 8.08965 29 9.25 29C10.4104 29 11.5385 28.6183 12.4603 27.9137C13.3821 27.2091 14.0464 26.2208 14.3507 25.1014H22.6493C22.9536 26.2208 23.6179 27.2091 24.5397 27.9137C25.4615 28.6183 26.5896 29 27.75 29C28.9104 29 30.0385 28.6183 30.9603 27.9137C31.8821 27.2091 32.5464 26.2208 32.8507 25.1014H35.6786C36.029 25.1014 36.3651 24.9622 36.613 24.7144C36.8608 24.4667 37 24.1306 37 23.7802V14.5324C36.9997 14.3553 36.9637 14.1801 36.8943 14.0171ZM27.75 6.60562H30.8421L33.67 13.2112H27.75V6.60562ZM9.25 26.4225C8.72729 26.4225 8.21632 26.2675 7.78171 25.9772C7.34709 25.6869 7.00835 25.2742 6.80832 24.7914C6.60829 24.3086 6.55595 23.7773 6.65792 23.2648C6.7599 22.7522 7.01161 22.2814 7.38122 21.9119C7.75083 21.5424 8.22174 21.2907 8.7344 21.1888C9.24707 21.0868 9.77846 21.1391 10.2614 21.3391C10.7443 21.5391 11.1571 21.8778 11.4475 22.3123C11.7379 22.7468 11.8929 23.2577 11.8929 23.7802C11.8929 24.481 11.6144 25.1531 11.1188 25.6486C10.6231 26.1441 9.95093 26.4225 9.25 26.4225ZM22.6493 22.4591H14.3507C14.0464 21.3396 13.3821 20.3514 12.4603 19.6468C11.5385 18.9422 10.4104 18.5605 9.25 18.5605C8.08965 18.5605 6.96154 18.9422 6.03972 19.6468C5.1179 20.3514 4.45359 21.3396 4.14929 22.4591H2.64286V2.64225H25.1071V19.2356C24.5054 19.5847 23.9786 20.0492 23.5568 20.6024C23.135 21.1555 22.8266 21.7865 22.6493 22.4591ZM27.75 26.4225C27.2273 26.4225 26.7163 26.2675 26.2817 25.9772C25.8471 25.6869 25.5083 25.2742 25.3083 24.7914C25.1083 24.3086 25.0559 23.7773 25.1579 23.2648C25.2599 22.7522 25.5116 22.2814 25.8812 21.9119C26.2508 21.5424 26.7217 21.2907 27.2344 21.1888C27.7471 21.0868 28.2785 21.1391 28.7614 21.3391C29.2443 21.5391 29.6571 21.8778 29.9475 22.3123C30.2379 22.7468 30.3929 23.2577 30.3929 23.7802C30.3929 24.481 30.1144 25.1531 29.6188 25.6486C29.1231 26.1441 28.4509 26.4225 27.75 26.4225ZM34.3571 22.4591H32.8507C32.5585 21.3276 31.8994 20.3248 30.9765 19.6077C30.0535 18.8906 28.9189 18.4995 27.75 18.4957V15.8535H34.3571V22.4591Z" fill="#5661CB"/>
</svg>
