<svg width="15" height="9" viewBox="0 0 15 9" fill="none" xmlns="http://www.w3.org/2000/svg">
<path d="M0.5625 0C0.413316 0 0.270242 0.0592632 0.164752 0.164752C0.0592632 0.270242 0 0.413316 0 0.5625C0 0.711684 0.0592632 0.854758 0.164752 0.960248C0.270242 1.06574 0.413316 1.125 0.5625 1.125H14.4375C14.5867 1.125 14.7298 1.06574 14.8352 0.960248C14.9407 0.854758 15 0.711684 15 0.5625C15 0.413316 14.9407 0.270242 14.8352 0.164752C14.7298 0.0592632 14.5867 0 14.4375 0H0.5625ZM3 4.3125C3 4.16332 3.05926 4.02024 3.16475 3.91475C3.27024 3.80926 3.41332 3.75 3.5625 3.75H11.4375C11.5867 3.75 11.7298 3.80926 11.8352 3.91475C11.9407 4.02024 12 4.16332 12 4.3125C12 4.46168 11.9407 4.60476 11.8352 4.71025C11.7298 4.81574 11.5867 4.875 11.4375 4.875H3.5625C3.41332 4.875 3.27024 4.81574 3.16475 4.71025C3.05926 4.60476 3 4.46168 3 4.3125ZM6 8.016C6 7.86682 6.05926 7.72374 6.16475 7.61825C6.27024 7.51276 6.41332 7.4535 6.5625 7.4535H8.4375C8.58668 7.4535 8.72976 7.51276 8.83525 7.61825C8.94074 7.72374 9 7.86682 9 8.016C9 8.16518 8.94074 8.30826 8.83525 8.41375C8.72976 8.51924 8.58668 8.5785 8.4375 8.5785H6.5625C6.41332 8.5785 6.27024 8.51924 6.16475 8.41375C6.05926 8.30826 6 8.16518 6 8.016Z" fill="#5661CB"/>
</svg>
