<svg width="200" height="54" viewBox="0 0 200 54" fill="none" xmlns="http://www.w3.org/2000/svg">
<g clip-path="url(#clip0_7161_2372)">
<path d="M4.33953 45.2398C3.60152 45.2398 3.03008 45.5299 2.62523 46.11C2.22037 46.6857 2.01795 47.49 2.01795 48.5228C2.01795 50.6718 2.79181 51.7464 4.33953 51.7464C4.98899 51.7464 5.77549 51.5771 6.69906 51.2388V52.9527C5.93997 53.2823 5.09231 53.4471 4.15608 53.4471C2.81079 53.4471 1.78178 53.023 1.06907 52.1749C0.356356 51.3223 0 50.1005 0 48.5096C0 47.5076 0.175015 46.6308 0.525045 45.8793C0.875075 45.1234 1.37692 44.5455 2.0306 44.1455C2.68848 43.7412 3.45813 43.5391 4.33953 43.5391C5.2378 43.5391 6.14031 43.7654 7.04698 44.218L6.41441 45.8793C6.0686 45.7079 5.72068 45.5585 5.37064 45.431C5.02061 45.3035 4.67691 45.2398 4.33953 45.2398Z" fill="#1D2B5B"/>
<path d="M17.8112 53.3145H15.8502V45.3775H13.3389V43.6768H20.3226V45.3775H17.8112V53.3145Z" fill="#1D2B5B"/>
<path d="M29.2779 48.2122H29.9231C30.5262 48.2122 30.9775 48.0891 31.2769 47.843C31.5763 47.5925 31.726 47.23 31.726 46.7553C31.726 46.2763 31.5995 45.9225 31.3465 45.6939C31.0977 45.4654 30.7054 45.3512 30.1699 45.3512H29.2779V48.2122ZM33.706 46.6828C33.706 47.72 33.3939 48.5132 32.7698 49.0626C32.1499 49.612 31.2663 49.8866 30.1193 49.8866H29.2779V53.3145H27.3169V43.6768H30.2711C31.3929 43.6768 32.2447 43.9295 32.8267 44.4348C33.4129 44.9359 33.706 45.6852 33.706 46.6828Z" fill="#1D2B5B"/>
<path d="M49.4169 48.4827C49.4169 50.078 49.0374 51.3042 48.2783 52.1611C47.5192 53.0182 46.4311 53.4466 45.0142 53.4466C43.5971 53.4466 42.5091 53.0182 41.75 52.1611C40.9909 51.3042 40.6113 50.0736 40.6113 48.4695C40.6113 46.8654 40.9909 45.6415 41.75 44.7977C42.5133 43.9494 43.6056 43.5254 45.0268 43.5254C46.448 43.5254 47.5339 43.9517 48.2846 44.8043C49.0395 45.6569 49.4169 46.883 49.4169 48.4827ZM42.6673 48.4827C42.6673 49.5594 42.8634 50.3703 43.2556 50.9152C43.6478 51.4602 44.234 51.7327 45.0142 51.7327C46.5788 51.7327 47.3611 50.6494 47.3611 48.4827C47.3611 46.3117 46.583 45.2262 45.0268 45.2262C44.2466 45.2262 43.6583 45.5008 43.2619 46.0502C42.8655 46.5951 42.6673 47.406 42.6673 48.4827Z" fill="#1D2B5B"/>
<path d="M56.9043 43.6772H58.6694V48.3313L58.6439 49.5772L58.5809 50.9945H58.6189L62.8885 43.6772H65.2357V53.315H63.4899V48.6872C63.4899 48.0676 63.5279 47.1491 63.6034 45.9317H63.5529L59.264 53.315H56.9043V43.6772ZM64.135 40.5459C64.055 41.3677 63.7577 41.9676 63.2431 42.3456C62.7285 42.7191 61.9863 42.9059 61.0161 42.9059C60.0169 42.9059 59.2765 42.7257 58.7959 42.3653C58.3193 42.005 58.0515 41.3985 57.9925 40.5459H59.7196C59.7491 40.9986 59.8564 41.3172 60.0419 41.5018C60.232 41.682 60.569 41.7721 61.0541 41.7721C61.4802 41.7721 61.7963 41.6732 62.0033 41.4754C62.2138 41.2732 62.3426 40.9634 62.3892 40.5459H64.135Z" fill="#1D2B5B"/>
<path d="M77.0562 53.3145L74.8292 45.7533H74.7725C74.8525 47.2915 74.8928 48.3177 74.8928 48.8319V53.3145H73.1401V43.6768H75.8096L77.9986 51.0469H78.0366L80.3583 43.6768H83.0278V53.3145H81.1997V48.7527C81.1997 48.5374 81.2014 48.2891 81.206 48.0078C81.2145 47.7266 81.244 46.9795 81.2945 45.7665H81.2377L78.8525 53.3145H77.0562Z" fill="#1D2B5B"/>
<path d="M96.5946 53.315L95.9239 51.021H92.5526L91.8819 53.315H89.769L93.0331 43.6377H95.4309L98.7075 53.315H96.5946ZM95.4558 49.307C94.8363 47.2282 94.4862 46.0526 94.4056 45.7802C94.3302 45.5077 94.2751 45.2923 94.2417 45.1341C94.1021 45.6966 93.7038 47.0876 93.0456 49.307H95.4558Z" fill="#1D2B5B"/>
<path d="M108.574 53.3145H106.613V45.3775H104.101V43.6768H111.085V45.3775H108.574V53.3145Z" fill="#1D2B5B"/>
<path d="M123.406 53.3145H118.079V43.6768H123.406V45.3512H120.041V47.4673H123.171V49.1417H120.041V51.6269H123.406V53.3145Z" fill="#1D2B5B"/>
<path d="M132.872 48.2122H133.518C134.121 48.2122 134.572 48.0891 134.872 47.843C135.171 47.5925 135.321 47.23 135.321 46.7553C135.321 46.2763 135.194 45.9225 134.941 45.6939C134.693 45.4654 134.301 45.3512 133.765 45.3512H132.872V48.2122ZM137.301 46.6828C137.301 47.72 136.989 48.5132 136.365 49.0626C135.745 49.612 134.861 49.8866 133.714 49.8866H132.872V53.3145H130.912V43.6768H133.866C134.988 43.6768 135.84 43.9295 136.421 44.4348C137.008 44.9359 137.301 45.6852 137.301 46.6828Z" fill="#1D2B5B"/>
<path d="M144.618 43.6768H146.382V48.3308L146.357 49.5768L146.294 50.9941H146.332L150.602 43.6768H152.948V53.3145H151.203V48.6868C151.203 48.0672 151.241 47.1486 151.317 45.9313H151.266L146.977 53.3145H144.618V43.6768Z" fill="#1D2B5B"/>
<path d="M166.516 53.315L165.845 51.021H162.473L161.802 53.315H159.689L162.954 43.6377H165.351L168.628 53.315H166.516ZM165.377 49.307C164.757 47.2282 164.407 46.0526 164.327 45.7802C164.251 45.5077 164.196 45.2923 164.162 45.1341C164.023 45.6966 163.624 47.0876 162.967 49.307H165.377Z" fill="#1D2B5B"/>
<path d="M182.688 53.3145H180.734V45.3775H178.469L178.368 46.2609C178.107 48.5067 177.875 50.0822 177.672 50.9875C177.474 51.8884 177.185 52.5235 176.806 52.8926C176.43 53.2618 175.909 53.4464 175.243 53.4464C174.889 53.4464 174.577 53.3981 174.307 53.3014V51.6269C174.552 51.7148 174.781 51.7588 174.996 51.7588C175.22 51.7588 175.397 51.6533 175.528 51.4424C175.659 51.227 175.781 50.8315 175.895 50.2558C176.013 49.6757 176.166 48.7286 176.356 47.4145C176.551 46.0961 176.715 44.8501 176.85 43.6768H182.688V53.3145Z" fill="#1D2B5B"/>
<path d="M196.919 50.3019C196.919 51.3039 196.598 52.0576 195.958 52.5631C195.321 53.0641 194.376 53.3145 193.124 53.3145H190.593V43.6768H192.554V47.375H193.187C194.372 47.375 195.289 47.6321 195.939 48.1463C196.592 48.6561 196.919 49.3746 196.919 50.3019ZM192.554 51.6402H193.066C193.712 51.6402 194.184 51.5303 194.484 51.3105C194.783 51.0864 194.933 50.7502 194.933 50.3019C194.933 49.8537 194.787 49.5328 194.496 49.3395C194.21 49.1461 193.704 49.0494 192.978 49.0494H192.554V51.6402ZM200 53.3145H198.045V43.6768H200V53.3145Z" fill="#1D2B5B"/>
<path d="M28.0445 13.6346V25.5691H19.8813V13.6346L23.9629 10.6618L28.0445 13.6346ZM31.9394 0L23.9629 5.80879L15.9872 0L0 11.6438V29.4879H9.27484V25.5691H3.92982V13.6346L15.9872 4.85181L20.6321 8.23535L15.9522 11.6438V29.4879H31.9741V11.6438L27.2946 8.23535L31.9394 4.85181L43.9974 13.6346V25.5691H38.2073V29.4879H47.9262V11.6438L31.9394 0Z" fill="#1D2B5B"/>
<path d="M64.2839 29.453H58.9863V1.84277H79.4567V6.03081H64.2839V29.453Z" fill="#1D2B5B"/>
<path d="M95.975 23.2103C95.4377 25.3819 94.2655 27.0752 92.4573 28.2903C90.6769 29.5053 88.5441 30.1129 86.0579 30.1129C82.7518 30.1129 80.1242 29.1434 78.1747 27.2044C76.2536 25.2397 75.2925 22.732 75.2925 19.6814C75.2925 16.5533 76.2814 13.9681 78.2593 11.9258C80.2655 9.88347 82.8085 8.8623 85.8882 8.8623C89.0808 8.8623 91.6096 9.87053 93.474 11.887C95.339 13.8776 96.2718 16.6051 96.2718 20.0692V20.5346H80.1242C80.1804 22.551 80.7319 24.1151 81.777 25.2268C82.8227 26.3126 84.2774 26.8554 86.1424 26.8554C87.4701 26.8554 88.5441 26.5711 89.3634 26.0023C90.2111 25.4077 90.8749 24.4771 91.3555 23.2103H95.975ZM91.44 17.5874C91.2987 15.907 90.7194 14.5885 89.7021 13.632C88.7138 12.6497 87.4281 12.1585 85.8457 12.1585C84.2633 12.1585 82.9776 12.6238 81.9892 13.5544C81.0281 14.4852 80.4352 15.8295 80.2088 17.5874H91.44Z" fill="#1D2B5B"/>
<path d="M104.564 9.44398V12.1197C106.034 9.94809 108.407 8.8623 111.684 8.8623C114.708 8.8623 117.123 9.83172 118.931 11.7707C120.74 13.7096 121.644 16.2948 121.644 19.5264C121.644 22.6803 120.754 25.2139 118.974 27.1269C117.222 29.0141 114.877 29.9577 111.938 29.9577C108.831 29.9577 106.458 28.9107 104.818 26.8167V36.8603H100.029V9.44398H104.564ZM110.71 12.4299C108.817 12.4299 107.333 13.0503 106.26 14.2912C105.186 15.5321 104.649 17.2514 104.649 19.4488C104.649 21.6204 105.186 23.3266 106.26 24.5676C107.361 25.8085 108.873 26.4289 110.795 26.4289C112.631 26.4289 114.086 25.8085 115.159 24.5676C116.233 23.3266 116.77 21.6462 116.77 19.5264C116.77 17.3547 116.219 15.6356 115.117 14.3688C114.043 13.0762 112.574 12.4299 110.71 12.4299Z" fill="#1D2B5B"/>
<path d="M130.515 29.453H125.854V9.44336H132.21L138.313 25.3425H138.398L144.289 9.44336H150.646V29.453H145.985V16.152H145.899L140.686 29.453H135.813L130.6 16.152H130.515V29.453Z" fill="#1D2B5B"/>
<path d="M175.274 23.2103C174.738 25.3819 173.565 27.0752 171.757 28.2903C169.977 29.5053 167.843 30.1129 165.357 30.1129C162.051 30.1129 159.423 29.1434 157.474 27.2044C155.553 25.2397 154.592 22.732 154.592 19.6814C154.592 16.5533 155.581 13.9681 157.559 11.9258C159.565 9.88347 162.108 8.8623 165.187 8.8623C168.38 8.8623 170.909 9.87053 172.774 11.887C174.638 13.8776 175.571 16.6051 175.571 20.0692V20.5346H159.424C159.48 22.551 160.031 24.1151 161.076 25.2268C162.122 26.3126 163.577 26.8554 165.442 26.8554C166.77 26.8554 167.843 26.5711 168.663 26.0023C169.51 25.4077 170.174 24.4771 170.655 23.2103H175.274ZM170.739 17.5874C170.598 15.907 170.019 14.5885 169.002 13.632C168.013 12.6497 166.727 12.1585 165.145 12.1585C163.563 12.1585 162.277 12.6238 161.288 13.5544C160.328 14.4852 159.734 15.8295 159.509 17.5874H170.739Z" fill="#1D2B5B"/>
<path d="M199.079 21.8916C198.739 24.3476 197.666 26.3123 195.858 27.7859C194.049 29.2336 191.775 29.9575 189.034 29.9575C185.757 29.9575 183.143 29.0139 181.193 27.1267C179.244 25.2136 178.269 22.7188 178.269 19.6424C178.269 16.3333 179.244 13.7093 181.193 11.7704C183.171 9.80565 185.827 8.82324 189.161 8.82324C191.958 8.82324 194.204 9.46954 195.9 10.7622C197.623 12.0548 198.626 13.8515 198.909 16.1524H194.12C193.837 14.8856 193.272 13.9161 192.425 13.244C191.577 12.5718 190.503 12.2357 189.204 12.2357C187.339 12.2357 185.87 12.8821 184.796 14.1747C183.722 15.4415 183.185 17.1865 183.185 19.4097C183.185 21.6331 183.694 23.3651 184.711 24.6061C185.757 25.847 187.197 26.4674 189.034 26.4674C190.475 26.4674 191.648 26.0796 192.552 25.304C193.484 24.5026 194.077 23.3651 194.331 21.8916H199.079Z" fill="#1D2B5B"/>
</g>
<defs>
<clipPath id="clip0_7161_2372">
<rect width="200" height="53.4468" fill="white"/>
</clipPath>
</defs>
</svg>
