<svg width="12" height="17" viewBox="0 0 12 17" fill="none" xmlns="http://www.w3.org/2000/svg">
  <path d="M6.571 15.0508C6.34571 15.2935 6.1512 15.4957 6 15.6499C5.8488 15.4957 5.65429 15.2935 5.429 15.0508C4.87434 14.4531 4.13581 13.6125 3.39849 12.6396C2.66006 11.6653 1.93018 10.5678 1.38668 9.45626C0.840548 8.33928 0.5 7.24297 0.5 6.26157C0.5 4.78639 1.08059 3.37257 2.11257 2.33088C3.14438 1.28934 4.54283 0.705078 6 0.705078C7.45717 0.705078 8.85562 1.28934 9.88743 2.33088C10.9194 3.37257 11.5 4.78639 11.5 6.26157C11.5 7.24297 11.1595 8.33928 10.6133 9.45626C10.0698 10.5678 9.33994 11.6653 8.60151 12.6396C7.86419 13.6125 7.12566 14.4531 6.571 15.0508ZM6 9.78981C6.92978 9.78981 7.82052 9.41694 8.47653 8.75475C9.13238 8.09272 9.5 7.19581 9.5 6.26157C9.5 5.32732 9.13238 4.43041 8.47653 3.76838C7.82052 3.1062 6.92978 2.73332 6 2.73332C5.07022 2.73332 4.17948 3.1062 3.52347 3.76838C2.86762 4.43041 2.5 5.32732 2.5 6.26157C2.5 7.19581 2.86762 8.09272 3.52347 8.75475C4.17948 9.41694 5.07022 9.78981 6 9.78981Z" stroke="#5661CB" />
</svg>