<svg width="26" height="26" viewBox="0 0 26 26" fill="none" xmlns="http://www.w3.org/2000/svg">
<path fill-rule="evenodd" clip-rule="evenodd" d="M24.791 1.209C24.9168 1.33475 25.0166 1.48405 25.0846 1.64837C25.1527 1.81269 25.1878 1.98881 25.1878 2.16667C25.1878 2.34453 25.1527 2.52065 25.0846 2.68497C25.0166 2.84928 24.9168 2.99858 24.791 3.12433L3.12433 24.791C2.99857 24.9168 2.84927 25.0165 2.68495 25.0846C2.52064 25.1526 2.34452 25.1877 2.16667 25.1877C1.98881 25.1877 1.8127 25.1526 1.64838 25.0846C1.48406 25.0165 1.33476 24.9168 1.209 24.791C1.08324 24.6652 0.983477 24.5159 0.915415 24.3516C0.847353 24.1873 0.812321 24.0112 0.812321 23.8333C0.812321 23.6555 0.847353 23.4794 0.915415 23.3151C0.983477 23.1507 1.08324 23.0014 1.209 22.8757L22.8757 1.209C23.0014 1.08322 23.1507 0.983437 23.315 0.915362C23.4794 0.847286 23.6555 0.812247 23.8333 0.812247C24.0112 0.812247 24.1873 0.847286 24.3516 0.915362C24.516 0.983437 24.6653 1.08322 24.791 1.209ZM5.41667 8.66667C6.27862 8.66667 7.10527 8.32426 7.71476 7.71476C8.32426 7.10527 8.66667 6.27862 8.66667 5.41667C8.66667 4.55471 8.32426 3.72806 7.71476 3.11857C7.10527 2.50908 6.27862 2.16667 5.41667 2.16667C4.55471 2.16667 3.72806 2.50908 3.11857 3.11857C2.50908 3.72806 2.16667 4.55471 2.16667 5.41667C2.16667 6.27862 2.50908 7.10527 3.11857 7.71476C3.72806 8.32426 4.55471 8.66667 5.41667 8.66667ZM5.41667 10.8333C6.85326 10.8333 8.23101 10.2627 9.24683 9.24683C10.2627 8.23101 10.8333 6.85326 10.8333 5.41667C10.8333 3.98008 10.2627 2.60233 9.24683 1.5865C8.23101 0.570683 6.85326 0 5.41667 0C3.98008 0 2.60233 0.570683 1.5865 1.5865C0.570683 2.60233 0 3.98008 0 5.41667C0 6.85326 0.570683 8.23101 1.5865 9.24683C2.60233 10.2627 3.98008 10.8333 5.41667 10.8333ZM20.5833 23.8333C21.4453 23.8333 22.2719 23.4909 22.8814 22.8814C23.4909 22.2719 23.8333 21.4453 23.8333 20.5833C23.8333 19.7214 23.4909 18.8947 22.8814 18.2852C22.2719 17.6757 21.4453 17.3333 20.5833 17.3333C19.7214 17.3333 18.8947 17.6757 18.2852 18.2852C17.6757 18.8947 17.3333 19.7214 17.3333 20.5833C17.3333 21.4453 17.6757 22.2719 18.2852 22.8814C18.8947 23.4909 19.7214 23.8333 20.5833 23.8333ZM20.5833 26C22.0199 26 23.3977 25.4293 24.4135 24.4135C25.4293 23.3977 26 22.0199 26 20.5833C26 19.1467 25.4293 17.769 24.4135 16.7532C23.3977 15.7374 22.0199 15.1667 20.5833 15.1667C19.1467 15.1667 17.769 15.7374 16.7532 16.7532C15.7374 17.769 15.1667 19.1467 15.1667 20.5833C15.1667 22.0199 15.7374 23.3977 16.7532 24.4135C17.769 25.4293 19.1467 26 20.5833 26Z" fill="#5661CB"/>
</svg>
