<svg width="28" height="28" viewBox="0 0 28 28" fill="none" xmlns="http://www.w3.org/2000/svg">
<path fill-rule="evenodd" clip-rule="evenodd" d="M1.75 7V24.5C1.75 24.9641 1.93437 25.4092 2.26256 25.7374C2.59075 26.0656 3.03587 26.25 3.5 26.25H24.5C24.9641 26.25 25.4092 26.0656 25.7374 25.7374C26.0656 25.4092 26.25 24.9641 26.25 24.5V7H1.75ZM3.5 1.75C2.57174 1.75 1.6815 2.11875 1.02513 2.77513C0.368749 3.4315 0 4.32174 0 5.25L0 24.5C0 25.4283 0.368749 26.3185 1.02513 26.9749C1.6815 27.6313 2.57174 28 3.5 28H24.5C25.4283 28 26.3185 27.6313 26.9749 26.9749C27.6313 26.3185 28 25.4283 28 24.5V5.25C28 4.32174 27.6313 3.4315 26.9749 2.77513C26.3185 2.11875 25.4283 1.75 24.5 1.75H3.5Z" fill="#5661CB"/>
<path fill-rule="evenodd" clip-rule="evenodd" d="M6.125 0C6.35706 0 6.57962 0.0921872 6.74372 0.256282C6.90781 0.420376 7 0.642936 7 0.875V1.75C7 1.98206 6.90781 2.20462 6.74372 2.36872C6.57962 2.53281 6.35706 2.625 6.125 2.625C5.89294 2.625 5.67038 2.53281 5.50628 2.36872C5.34219 2.20462 5.25 1.98206 5.25 1.75V0.875C5.25 0.642936 5.34219 0.420376 5.50628 0.256282C5.67038 0.0921872 5.89294 0 6.125 0V0ZM21.875 0C22.1071 0 22.3296 0.0921872 22.4937 0.256282C22.6578 0.420376 22.75 0.642936 22.75 0.875V1.75C22.75 1.98206 22.6578 2.20462 22.4937 2.36872C22.3296 2.53281 22.1071 2.625 21.875 2.625C21.6429 2.625 21.4204 2.53281 21.2563 2.36872C21.0922 2.20462 21 1.98206 21 1.75V0.875C21 0.642936 21.0922 0.420376 21.2563 0.256282C21.4204 0.0921872 21.6429 0 21.875 0V0Z" fill="#5661CB"/>
<path d="M17.2529 11.7578L13.1309 21H11.8047L15.9131 12.0859H10.5264V11.0469H17.2529V11.7578Z" fill="#5661CB"/>
</svg>
